<?xml version="1.0" encoding="UTF-8" standalone="no"?>
<!-- Created with Inkscape (http://www.inkscape.org/) -->

<svg
   width="32"
   height="32"
   viewBox="0 0 32 32"
   version="1.1"
   id="svg1"
   inkscape:version="1.4.2 (ebf0e940d0, 2025-05-08)"
   sodipodi:docname="arrow-down-source.svg"
   inkscape:export-filename="arrow-down-double.png"
   inkscape:export-xdpi="96"
   inkscape:export-ydpi="96"
   xmlns:inkscape="http://www.inkscape.org/namespaces/inkscape"
   xmlns:sodipodi="http://sodipodi.sourceforge.net/DTD/sodipodi-0.dtd"
   xmlns="http://www.w3.org/2000/svg"
   xmlns:svg="http://www.w3.org/2000/svg">
  <sodipodi:namedview
     id="namedview1"
     pagecolor="#ffffff"
     bordercolor="#000000"
     borderopacity="0.25"
     inkscape:showpageshadow="2"
     inkscape:pageopacity="0.0"
     inkscape:pagecheckerboard="0"
     inkscape:deskcolor="#d1d1d1"
     inkscape:document-units="px"
     inkscape:zoom="6.46875"
     inkscape:cx="27.516908"
     inkscape:cy="23.2657"
     inkscape:window-width="1300"
     inkscape:window-height="699"
     inkscape:window-x="0"
     inkscape:window-y="0"
     inkscape:window-maximized="1"
     inkscape:current-layer="layer1" />
  <defs
     id="defs1" />
  <g
     inkscape:label="Layer 1"
     inkscape:groupmode="layer"
     id="layer1">
    <rect
       style="fill:#000000;stroke:none;stroke-width:0.49769"
       id="rect1-3-1-6-0"
       width="2"
       height="16"
       x="-42.882385"
       y="-16.716717"
       rx="0.38051748"
       transform="scale(-1)" />
    <rect
       style="fill:#000000;stroke:none;stroke-width:0.49769"
       id="rect1-3-1-3-1-2"
       width="2"
       height="16"
       x="-17.216717"
       y="40.882385"
       rx="0.38051748"
       transform="rotate(-90)" />
    <g
       id="g2"
       transform="translate(0,0.1610783)">
      <rect
         style="fill:#000000;stroke:none;stroke-width:0.645075"
         id="rect1"
         width="2"
         height="26.879601"
         x="15"
         y="1.3912112"
         rx="0.38051748" />
      <path
         id="rect1-3-1-6-0-2"
         style="fill:#000000;stroke:none;stroke-width:0.49769"
         d="m 4.9555998,18.861127 c -0.1490629,0.149063 -0.1490627,0.389554 -3e-7,0.538616 l 9.8994955,9.899495 0.875597,0.875597 c 0.149062,0.149063 0.389554,0.149063 0.538616,0 l 0.875597,-0.875597 9.899496,-9.899495 c 0.149062,-0.149062 0.149062,-0.389554 0,-0.538616 l -0.875598,-0.875598 c -0.149062,-0.149062 -0.389554,-0.149062 -0.538616,0 L 16,27.615716 6.369813,17.985529 c -0.1490624,-0.149062 -0.3895537,-0.149062 -0.5386162,1e-6 z" />
    </g>
  </g>
</svg>
