<?xml version="1.0" encoding="UTF-8" standalone="no"?>
<!-- Created with Inkscape (http://www.inkscape.org/) -->

<svg
   width="32"
   height="32"
   viewBox="0 0 32 32"
   version="1.1"
   id="svg1"
   inkscape:version="1.4.2 (ebf0e940d0, 2025-05-08)"
   sodipodi:docname="arrow-down-source.svg"
   xmlns:inkscape="http://www.inkscape.org/namespaces/inkscape"
   xmlns:sodipodi="http://sodipodi.sourceforge.net/DTD/sodipodi-0.dtd"
   xmlns="http://www.w3.org/2000/svg"
   xmlns:svg="http://www.w3.org/2000/svg">
  <sodipodi:namedview
     id="namedview1"
     pagecolor="#ffffff"
     bordercolor="#000000"
     borderopacity="0.25"
     inkscape:showpageshadow="2"
     inkscape:pageopacity="0.0"
     inkscape:pagecheckerboard="0"
     inkscape:deskcolor="#d1d1d1"
     inkscape:document-units="px"
     inkscape:zoom="6.46875"
     inkscape:cx="35.710145"
     inkscape:cy="15.845411"
     inkscape:window-width="1300"
     inkscape:window-height="699"
     inkscape:window-x="0"
     inkscape:window-y="0"
     inkscape:window-maximized="1"
     inkscape:current-layer="layer1" />
  <defs
     id="defs1" />
  <g
     inkscape:label="Layer 1"
     inkscape:groupmode="layer"
     id="layer1">
    <g
       id="g1"
       transform="translate(0,-0.78242194)">
      <rect
         style="fill:#000000;stroke:none;stroke-width:1.06879"
         id="rect1"
         width="5.256"
         height="28.077667"
         x="13.372"
         y="1.5648441"
         rx="1" />
      <path
         id="rect1-3-1-3"
         style="stroke-width:0.806811"
         d="m 15.292893,31.706197 -2.302339,-2.30234 c -0.391737,-0.391737 -0.391737,-1.022476 0,-1.414214 l 9.899495,-9.899493 c 0.391737,-0.391738 1.022476,-0.391738 1.414213,0 l 2.30234,2.302338 c 0.391737,0.391737 0.391737,1.022477 0,1.414214 l -9.899495,9.899495 c -0.391737,0.391737 -1.022476,0.391737 -1.414214,0 z m 3.716553,-2.30234 -2.302339,2.30234 c -0.391737,0.391737 -1.022476,0.391737 -1.414214,0 L 5.3933983,21.806702 c -0.3917372,-0.391737 -0.3917372,-1.022477 0,-1.414214 L 7.6957378,18.09015 c 0.3917371,-0.391738 1.0224764,-0.391738 1.4142136,0 l 9.8994946,9.899494 c 0.391738,0.391737 0.391738,1.022476 0,1.414213 z" />
    </g>
    <rect
       style="fill:#000000;stroke:none;stroke-width:0.806811"
       id="rect1-3-1-6"
       width="5.256"
       height="16"
       x="-41.449238"
       y="-17.342995"
       rx="1"
       transform="scale(-1)" />
    <rect
       style="fill:#000000;stroke:none;stroke-width:0.806811"
       id="rect1-3-1-3-1"
       width="5.256"
       height="16"
       x="-17.342995"
       y="36.193237"
       rx="1"
       transform="rotate(-90)" />
  </g>
</svg>
